<?xml version="1.0"?>
<svg width="355.7" height="129.8" xmlns="http://www.w3.org/2000/svg" xmlns:svg="http://www.w3.org/2000/svg" enable-background="new 0 0 355.7 129.8" version="1.1" xml:space="preserve">
 <style type="text/css">.st0{display:none;}
	.st1{display:inline;}
	.st2{fill:#FFFFFE;}
	.st3{fill:#4AA241;}
	.st4{fill:#FFFFFF;}
	.st5{fill:#4E9D2D;}
	.st6{font-family:&#x27;Whitney-Semibold&#x27;;}
	.st7{font-size:17.9814px;}</style>
 <g class="layer">
  <title>Layer 1</title>
  <g class="st0" id="Layer_1_1_"/>
  <path class="st4" d="m264,23.5c-0.3,1.4 -0.3,4.7 1.7,4.3c2.6,-0.6 2.2,-0.8 3.7,-2.1c0.8,-0.8 3.2,1.5 0,5c-1.8,2.1 -2.1,2.6 -1.2,3.7c1,1.2 3.6,1.7 3.6,5.3c0,3.2 4.2,0.8 5.1,-0.3c1,-1.2 1.7,-6.8 4.4,-2.8c2.1,2.9 -1.4,9.2 2.6,9.7c3.3,0.4 3.9,4.3 4,5.3c0,0.1 0,0.3 0,0.3c8.6,-8.2 2.8,-18.9 2.6,-20.1c-0.3,-2.4 0.8,-1.5 2.4,0c-6,-11.8 -18.5,-19.8 -32.8,-19.8c-2.5,0 -5,0.3 -7.2,0.7c7.3,0.1 12.5,3.2 11.1,10.8l0,0z" id="svg_8"/>
  <path class="st4" d="m283.7,68.7c-2.2,0.8 -3.2,-0.6 -5,1.1c-1.9,1.8 4.2,5.4 -6.9,2.9c-5,-1.1 -4.3,4.3 -9.7,1.5c-1.5,-3.7 -1.5,-5.8 -0.3,-8c1.5,-2.6 2.1,-1.8 1.1,-4.7c-0.3,-1.1 0,-1.7 0.6,-3.2c0.6,-1.5 -0.3,-3.9 -2.5,-3.7c-3.1,0.1 -2.6,1.5 -4.4,2.8c-1.2,0.8 -3.3,-3.3 1,-7.2c2.4,-2.1 2.9,-2.6 2.1,-4.4c-0.8,-1.7 -2.4,-1 -2.9,-2.9c-0.4,-1.5 0.3,-4.3 -1.8,-4.9c-2.4,-0.8 -4.3,2.6 -5.7,4c-1.5,1.5 -3.3,4.4 -4.3,2.1c-1.5,-3.9 5.5,-9.9 1.1,-11.5c-4,-1.5 -5.4,-5.7 -5.4,-5.7c-11.2,8.3 -6,15.7 -6.8,16.9c-0.8,1.4 -2.6,-1.5 -4.3,-0.3c-1.1,1 -2.2,7.9 5,12.2c2.6,1.7 3.6,2.1 2.9,3.1c-0.6,0.8 -2.6,0.1 -2.6,1.9c0.1,3.6 5.8,2.6 6.9,7.1c1,4.3 19,6.8 19,6.8s0.1,0 0.3,0l0.8,0.4c0.3,1.1 1.4,3.7 3.9,5c4.2,2.1 -0.3,1.1 0.3,2.6c0.3,0.8 3.2,2.6 8.5,1.5c7.2,-3.1 13.3,-8.2 17.5,-14.8c-4.7,-3.3 -5.1,-2.6 -8.4,-0.6l0,0z" id="svg_9"/>
  <path class="st5" d="m260.9,74.6c-0.1,0 -0.3,-0.1 -0.3,0c0,0 -18,-2.6 -19,-6.8c-1,-4.4 -6.8,-3.5 -6.9,-7.1c0,-1.8 2.1,-1.1 2.6,-1.9c0.7,-1 -0.3,-1.5 -2.9,-3.1c-7.2,-4.4 -6.2,-11.1 -5,-12.2c1.5,-1.4 3.3,1.5 4.3,0.3c0.8,-1.4 -4.4,-8.6 6.8,-16.9c0,0 1.4,4.3 5.4,5.7c4.4,1.5 -2.6,7.4 -1.1,11.5c0.8,2.2 2.6,-0.6 4.3,-2.1c1.4,-1.4 3.2,-4.7 5.7,-4c2.1,0.7 1.4,3.3 1.8,4.9c0.6,1.9 2.1,1.4 2.9,2.9s0.3,2.2 -2.1,4.4c-4.4,3.9 -2.2,8 -1,7.2c1.8,-1.2 1.5,-2.6 4.4,-2.8c2.2,-0.1 3.1,2.1 2.5,3.7c-0.6,1.7 -1,2.1 -0.6,3.2c0.8,2.9 0.3,2.1 -1.1,4.7c-1.4,2.2 -1.2,4.4 0.3,8c5.5,2.8 4.9,-2.6 9.7,-1.5c11,2.5 5,-1.1 6.9,-2.9c1.7,-1.7 2.6,-0.3 5,-1.1c3.3,-2.1 3.7,-2.8 8.2,0.7c3.6,-5.7 5.7,-12.6 5.7,-19.8c0,-6.4 -1.5,-12.3 -4.4,-17.5c-1.5,-1.5 -2.8,-2.4 -2.5,0c0.3,1.4 6,11.9 -2.6,20.1c0,0 0,-0.1 0,-0.3c-0.1,-1 -0.7,-4.9 -4,-5.3c-4,-0.6 -0.7,-6.8 -2.6,-9.7c-2.8,-4 -3.5,1.5 -4.4,2.8c-1,1.2 -5.1,3.6 -5.1,0.3c0,-3.7 -2.6,-4.2 -3.6,-5.3c-0.8,-1.1 -0.6,-1.8 1.2,-3.7c3.2,-3.6 0.8,-6 0,-5c-1.5,1.2 -1.1,1.5 -3.7,2.1c-1.9,0.4 -1.9,-2.9 -1.7,-4.3c1.4,-7.8 -3.9,-10.7 -11.2,-11c-17.3,3.3 -30.4,18.6 -30.4,36.9c0,20.8 16.9,37.6 37.6,37.6c5.1,0 10,-1 14.6,-2.9c-5.3,1.2 -8.2,-0.8 -8.5,-1.5c-0.6,-1.5 3.9,-0.4 -0.3,-2.6c-2.5,-1.2 -3.6,-3.9 -3.9,-5l-1,-0.7l0,0z" id="svg_10" transform="matrix(1 0 0 1 0 0)"/>
  <path class="st5" d="m263.2,75.8c0,0 -24.7,-9.6 -25.5,-33.9c-0.1,0.1 2.3,18.4 25.5,33.9l0,0z" id="svg_11"/>
  <path class="st5" d="m262.9,12.1c0.7,0.1 6.1,0.8 11.7,4.4c2.1,1.9 5,6.8 0.4,16.6c0,0 5.8,-7.9 4.4,-12.8c5,5 9,12.8 9.2,25.1c0.1,0 5.4,-30.9 -25.7,-33.3l0,0z" id="svg_12"/>
  <path class="st5" d="m287.6,73.5c-1.9,1.1 -5,3.9 -9.9,2.2c0,0 1.9,1.5 5,1.5c-4,2.1 -8.3,2.6 -15.3,0.8c0,0 13.9,8.2 23.6,-7.5c0.2,-0.1 -2.3,2.1 -3.4,3l0,0z" id="svg_13"/>
  <g id="svg_34"/>
  <text class="st4 st6 st7" id="svg_40" transform="matrix(1 0 0 1 70.3548 126.527)" x="-1" y="-33"/>
  <text fill="#ffffff" font-family="Times" font-size="4" id="svg_43" letter-spacing="0" stroke-width="0" text-anchor="middle" textLength="0" transform="matrix(12.7667 0 0 11.2119 -2065.79 773.219)" word-spacing="0" x="171.66" xml:space="preserve" y="-63.61">Van Rah</text>
  <text fill="#bfbfbf" font-family="Sans-serif" font-size="3" id="svg_44" stroke-width="0" text-anchor="middle" transform="matrix(10.1623 0 0 8.81121 -946.047 -597.521)" x="112.06" xml:space="preserve" y="78">India</text>
 </g>
</svg>